<svg width="25" height="20" viewBox="0 0 25 20" fill="none" xmlns="http://www.w3.org/2000/svg">
<path d="M25 16V8H19.0789V12H21.0526V16H17.1053V4H25V0H17.1053C16.0584 0 15.0543 0.421428 14.3141 1.17157C13.5738 1.92172 13.1579 2.93913 13.1579 4V16C13.1579 17.0609 13.5738 18.0783 14.3141 18.8284C15.0543 19.5786 16.0584 20 17.1053 20H21.0526C22.0995 20 23.1036 19.5786 23.8438 18.8284C24.5841 18.0783 25 17.0609 25 16ZM9.21053 0H0V12H5.26316V16H0V20H7.23684C7.7603 20 8.26231 19.7893 8.63245 19.4142C9.00259 19.0391 9.21053 18.5304 9.21053 18V10C9.21053 9.46957 9.00259 8.96086 8.63245 8.58579C8.26231 8.21071 7.7603 8 7.23684 8H3.94737V4H9.21053V0Z" fill="#F9F9F9"/>
</svg>
