<svg width="52" height="48" viewBox="0 0 52 48" fill="none" xmlns="http://www.w3.org/2000/svg">
<path d="M20.8 26.4C20.2858 26.4 19.7831 26.5408 19.3555 26.8045C18.9279 27.0682 18.5947 27.443 18.3979 27.8816C18.2011 28.3201 18.1496 28.8027 18.25 29.2682C18.3503 29.7338 18.5979 30.1614 18.9615 30.4971C19.3251 30.8327 19.7884 31.0613 20.2928 31.1539C20.7971 31.2465 21.3199 31.199 21.795 31.0173C22.2701 30.8357 22.6761 30.528 22.9618 30.1334C23.2475 29.7387 23.4 29.2747 23.4 28.8C23.4 28.1635 23.1261 27.553 22.6385 27.1029C22.1509 26.6529 21.4896 26.4 20.8 26.4ZM20.8 16.8C20.2858 16.8 19.7831 16.9408 19.3555 17.2045C18.9279 17.4682 18.5947 17.843 18.3979 18.2816C18.2011 18.7201 18.1496 19.2027 18.25 19.6682C18.3503 20.1338 18.5979 20.5614 18.9615 20.8971C19.3251 21.2327 19.7884 21.4613 20.2928 21.5539C20.7971 21.6465 21.3199 21.599 21.795 21.4173C22.2701 21.2357 22.6761 20.928 22.9618 20.5334C23.2475 20.1387 23.4 19.6747 23.4 19.2C23.4 18.5635 23.1261 17.953 22.6385 17.5029C22.1509 17.0529 21.4896 16.8 20.8 16.8ZM31.2 16.8C30.6858 16.8 30.1831 16.9408 29.7555 17.2045C29.3279 17.4682 28.9947 17.843 28.7979 18.2816C28.6011 18.7201 28.5496 19.2027 28.65 19.6682C28.7503 20.1338 28.9979 20.5614 29.3615 20.8971C29.7251 21.2327 30.1884 21.4613 30.6928 21.5539C31.1971 21.6465 31.7199 21.599 32.195 21.4173C32.6701 21.2357 33.0761 20.928 33.3618 20.5334C33.6475 20.1387 33.8 19.6747 33.8 19.2C33.8 18.5635 33.5261 17.953 33.0385 17.5029C32.5509 17.0529 31.8896 16.8 31.2 16.8ZM49.4 26.4C50.0896 26.4 50.7509 26.1471 51.2385 25.6971C51.7261 25.247 52 24.6365 52 24C52 23.3635 51.7261 22.753 51.2385 22.3029C50.7509 21.8529 50.0896 21.6 49.4 21.6H44.2V16.8H49.4C50.0896 16.8 50.7509 16.5471 51.2385 16.0971C51.7261 15.647 52 15.0365 52 14.4C52 13.7635 51.7261 13.153 51.2385 12.7029C50.7509 12.2529 50.0896 12 49.4 12H43.732C43.3438 10.9934 42.7177 10.0793 41.8993 9.32376C41.0808 8.56826 40.0904 7.99036 39 7.632V2.4C39 1.76348 38.7261 1.15303 38.2385 0.702944C37.7509 0.252856 37.0896 0 36.4 0C35.7104 0 35.0491 0.252856 34.5615 0.702944C34.0739 1.15303 33.8 1.76348 33.8 2.4V7.2H28.6V2.4C28.6 1.76348 28.3261 1.15303 27.8385 0.702944C27.3509 0.252856 26.6896 0 26 0C25.3104 0 24.6491 0.252856 24.1615 0.702944C23.6739 1.15303 23.4 1.76348 23.4 2.4V7.2H18.2V2.4C18.2 1.76348 17.9261 1.15303 17.4385 0.702944C16.9509 0.252856 16.2896 0 15.6 0C14.9104 0 14.2491 0.252856 13.7615 0.702944C13.2739 1.15303 13 1.76348 13 2.4V7.632C11.9096 7.99036 10.9192 8.56826 10.1007 9.32376C9.28228 10.0793 8.65623 10.9934 8.268 12H2.6C1.91044 12 1.24912 12.2529 0.761522 12.7029C0.273928 13.153 0 13.7635 0 14.4C0 15.0365 0.273928 15.647 0.761522 16.0971C1.24912 16.5471 1.91044 16.8 2.6 16.8H7.8V21.6H2.6C1.91044 21.6 1.24912 21.8529 0.761522 22.3029C0.273928 22.753 0 23.3635 0 24C0 24.6365 0.273928 25.247 0.761522 25.6971C1.24912 26.1471 1.91044 26.4 2.6 26.4H7.8V31.2H2.6C1.91044 31.2 1.24912 31.4529 0.761522 31.9029C0.273928 32.353 0 32.9635 0 33.6C0 34.2365 0.273928 34.847 0.761522 35.2971C1.24912 35.7471 1.91044 36 2.6 36H8.268C8.65623 37.0066 9.28228 37.9207 10.1007 38.6762C10.9192 39.4317 11.9096 40.0096 13 40.368V45.6C13 46.2365 13.2739 46.847 13.7615 47.2971C14.2491 47.7471 14.9104 48 15.6 48C16.2896 48 16.9509 47.7471 17.4385 47.2971C17.9261 46.847 18.2 46.2365 18.2 45.6V40.8H23.4V45.6C23.4 46.2365 23.6739 46.847 24.1615 47.2971C24.6491 47.7471 25.3104 48 26 48C26.6896 48 27.3509 47.7471 27.8385 47.2971C28.3261 46.847 28.6 46.2365 28.6 45.6V40.8H33.8V45.6C33.8 46.2365 34.0739 46.847 34.5615 47.2971C35.0491 47.7471 35.7104 48 36.4 48C37.0896 48 37.7509 47.7471 38.2385 47.2971C38.7261 46.847 39 46.2365 39 45.6V40.368C40.0904 40.0096 41.0808 39.4317 41.8993 38.6762C42.7177 37.9207 43.3438 37.0066 43.732 36H49.4C50.0896 36 50.7509 35.7471 51.2385 35.2971C51.7261 34.847 52 34.2365 52 33.6C52 32.9635 51.7261 32.353 51.2385 31.9029C50.7509 31.4529 50.0896 31.2 49.4 31.2H44.2V26.4H49.4ZM39 33.6C39 34.2365 38.7261 34.847 38.2385 35.2971C37.7509 35.7471 37.0896 36 36.4 36H15.6C14.9104 36 14.2491 35.7471 13.7615 35.2971C13.2739 34.847 13 34.2365 13 33.6V14.4C13 13.7635 13.2739 13.153 13.7615 12.7029C14.2491 12.2529 14.9104 12 15.6 12H36.4C37.0896 12 37.7509 12.2529 38.2385 12.7029C38.7261 13.153 39 13.7635 39 14.4V33.6ZM31.2 26.4C30.6858 26.4 30.1831 26.5408 29.7555 26.8045C29.3279 27.0682 28.9947 27.443 28.7979 27.8816C28.6011 28.3201 28.5496 28.8027 28.65 29.2682C28.7503 29.7338 28.9979 30.1614 29.3615 30.4971C29.7251 30.8327 30.1884 31.0613 30.6928 31.1539C31.1971 31.2465 31.7199 31.199 32.195 31.0173C32.6701 30.8357 33.0761 30.528 33.3618 30.1334C33.6475 29.7387 33.8 29.2747 33.8 28.8C33.8 28.1635 33.5261 27.553 33.0385 27.1029C32.5509 26.6529 31.8896 26.4 31.2 26.4Z" fill="#F3F3F3"/>
</svg>
