<svg width="46" height="38" viewBox="0 0 46 38" fill="none" xmlns="http://www.w3.org/2000/svg">
<path d="M31.2868 7.1875H10.4007C9.54879 7.18837 8.73199 7.53482 8.12957 8.15082C7.52716 8.76683 7.18835 9.60206 7.1875 10.4732V26.9018C7.18835 27.7729 7.52716 28.6082 8.12957 29.2242C8.73199 29.8402 9.54879 30.1866 10.4007 30.1875H31.2868C32.1387 30.1866 32.9555 29.8402 33.5579 29.2242C34.1603 28.6082 34.4991 27.7729 34.5 26.9018V10.4732C34.4991 9.60206 34.1603 8.76683 33.5579 8.15082C32.9555 7.53482 32.1387 7.18837 31.2868 7.1875ZM31.2868 13.7589H26.4669V10.4732H31.2868V13.7589ZM26.4669 17.0446H31.2868V20.3304H26.4669V17.0446ZM23.2537 10.4732V26.9018H18.4338V15.4018C18.4338 14.9661 18.2646 14.5482 17.9633 14.2401C17.662 13.932 17.2533 13.7589 16.8272 13.7589H10.4007V10.4732H23.2537ZM15.2206 20.3304H10.4007V17.0446H15.2206V20.3304ZM10.4007 23.6161H15.2206V26.9018H10.4007V23.6161ZM26.4669 26.9018V23.6161H31.2868V26.9018H26.4669Z" fill="#F9F9F9"/>
<path d="M35.374 37.375H3.28571C2.41456 37.3741 1.57933 37.0158 0.963324 36.3788C0.347322 35.7418 0.000869855 34.8781 0 33.9773V3.39773C0.000869855 2.49687 0.347322 1.63317 0.963324 0.996165C1.57933 0.359162 2.41456 0.000899509 3.28571 0H42.7143C43.5854 0.000899509 44.4207 0.359162 45.0367 0.996165C45.6527 1.63317 45.9991 2.49687 46 3.39773V24.868C45.9991 25.6626 45.7294 26.4319 45.2377 27.0425L37.8974 36.1518C37.5897 36.535 37.2039 36.8433 36.7678 37.0547C36.3316 37.2662 35.8557 37.3755 35.374 37.375ZM3.28571 3.39773V33.9773H35.374L42.7143 24.868V3.39773H3.28571Z" fill="#F9F9F9"/>
</svg>
